<?xml version="1.0" encoding="utf-8"?>
<!-- Generator: Adobe Illustrator 23.0.1, SVG Export Plug-In . SVG Version: 6.00 Build 0)  -->
<svg version="1.1" id="Layer_1" xmlns="http://www.w3.org/2000/svg" xmlns:xlink="http://www.w3.org/1999/xlink" x="0px" y="0px"
	 viewBox="0 0 24 24" style="enable-background:new 0 0 24 24;" xml:space="preserve">
<style type="text/css">
	.st0{fill:url(#SVGID_1_);}
	.st1{fill:url(#SVGID_2_);}
	.st2{fill:#BADEF7;}
	.st3{fill:url(#SVGID_3_);}
	.st4{fill:url(#SVGID_4_);}
	.st5{fill:url(#SVGID_5_);}
	.st6{fill:url(#SVGID_6_);}
	.st7{fill:url(#SVGID_7_);}
	.st8{fill:url(#SVGID_8_);}
	.st9{fill:url(#SVGID_9_);}
</style>
<linearGradient id="SVGID_1_" gradientUnits="userSpaceOnUse" x1="10.2938" y1="20.343" x2="10.2938" y2="4.5936">
	<stop  offset="0" style="stop-color:#94BEF7"/>
	<stop  offset="0.557" style="stop-color:#83ACEE"/>
	<stop  offset="1" style="stop-color:#7CA3EA"/>
</linearGradient>
<rect x="0.2" y="4.6" class="st0" width="20.3" height="15.7"/>
<linearGradient id="SVGID_2_" gradientUnits="userSpaceOnUse" x1="10.2904" y1="19.2374" x2="10.2904" y2="5.6917">
	<stop  offset="0" style="stop-color:#E6F3FB"/>
	<stop  offset="1" style="stop-color:#DDEEFB"/>
</linearGradient>
<rect x="1.3" y="5.7" class="st1" width="18" height="13.5"/>
<rect x="2.4" y="10.6" class="st2" width="3.2" height="1.9"/>
<rect x="10.8" y="13.4" class="st2" width="3.2" height="1.9"/>
<rect x="6.6" y="10.6" class="st2" width="3.2" height="1.9"/>
<rect x="10.8" y="10.6" class="st2" width="3.2" height="1.9"/>
<rect x="15" y="13.4" class="st2" width="3.2" height="1.9"/>
<rect x="10.8" y="7.9" class="st2" width="3.2" height="1.8"/>
<rect x="15" y="7.9" class="st2" width="3.2" height="1.8"/>
<rect x="15" y="10.6" class="st2" width="3.2" height="1.9"/>
<rect x="6.6" y="13.4" class="st2" width="3.2" height="1.9"/>
<rect x="2.4" y="16.2" class="st2" width="3.2" height="1.9"/>
<rect x="2.4" y="7.9" class="st2" width="3.2" height="1.8"/>
<rect x="15" y="16.2" class="st2" width="3.2" height="1.9"/>
<rect x="2.4" y="13.4" class="st2" width="3.2" height="1.9"/>
<rect x="6.6" y="16.2" class="st2" width="3.2" height="1.9"/>
<rect x="6.6" y="7.9" class="st2" width="3.2" height="1.8"/>
<rect x="10.8" y="16.2" class="st2" width="3.2" height="1.9"/>
<linearGradient id="SVGID_3_" gradientUnits="userSpaceOnUse" x1="8026.7329" y1="394.4118" x2="8026.7329" y2="379.7926" gradientTransform="matrix(-1 0 0 -1 8043.1489 401.5)">
	<stop  offset="0" style="stop-color:#EFA729"/>
	<stop  offset="1" style="stop-color:#C6671A"/>
</linearGradient>
<path class="st3" d="M21,17.3l2.7,1.5v2.9H9.1v-0.4c0-0.5,0.5-1.1,0.9-1.4l5.5-2.8c0.5-0.3,0.5-0.7,0.3-1.1c0,0-1.5-1.8-1.5-3.8
	c-0.1-2.8,1.7-5.1,3.9-5.1s4,2.4,4,5.2c0,1.9-1.5,3.8-1.5,3.8C20.4,16.5,20.5,17,21,17.3z"/>
<linearGradient id="SVGID_4_" gradientUnits="userSpaceOnUse" x1="8026.5044" y1="393.4981" x2="8026.5044" y2="380.7063" gradientTransform="matrix(-1 0 0 -1 8043.1489 401.5)">
	<stop  offset="0" style="stop-color:#FFEAA7"/>
	<stop  offset="1" style="stop-color:#F7BD27"/>
</linearGradient>
<path class="st4" d="M22.8,20.8v-1.6l-2.3-1.2c-0.5-0.3-0.7-0.6-0.9-1.1c-0.1-0.5,0-1,0.4-1.4c0,0,1.3-1.6,1.3-3.3
	c0.1-2.4-1.4-4.3-3-4.3c-1.6,0-3.1,1.9-3.1,4.3c0,1.6,1.3,3.2,1.3,3.3c0.3,0.4,0.5,0.9,0.4,1.4c-0.1,0.5-0.5,0.9-0.9,1.1l-5.4,2.7
	H22.8z"/>
<linearGradient id="SVGID_5_" gradientUnits="userSpaceOnUse" x1="8025.0884" y1="392.5963" x2="8025.0884" y2="381.6191" gradientTransform="matrix(-1 0 0 -1 8043.1489 401.5)">
	<stop  offset="0" style="stop-color:#FFC20F"/>
	<stop  offset="1" style="stop-color:#F4AD0D"/>
</linearGradient>
<path class="st5" d="M21.9,19.9l-1.7-1c-0.7-0.4-1.2-1-1.4-1.7c-0.2-0.7,0-1.6,0.5-2.1c0.3-0.4,1.1-1.6,1.1-2.7c0-1.8-1-3.4-2.2-3.4
	c-1.2,0-2.2,1.6-2.2,3.4c0,1,0.8,2.3,1.1,2.7c0.5,0.6,0.6,1.4,0.5,2.1c-0.2,0.7-0.6,1.4-1.4,1.7l-2,1H21.9z"/>
<linearGradient id="SVGID_6_" gradientUnits="userSpaceOnUse" x1="25.0294" y1="399.1365" x2="25.0294" y2="394.7192" gradientTransform="matrix(1 0 0 -1 -21 401.5)">
	<stop  offset="0" style="stop-color:#76A0EF"/>
	<stop  offset="1" style="stop-color:#6B8FD4"/>
</linearGradient>
<path class="st6" d="M2.4,2.4h3.2v4.4H2.4V2.4z"/>
<linearGradient id="SVGID_7_" gradientUnits="userSpaceOnUse" x1="25.0198" y1="398.0322" x2="25.0198" y2="395.8232" gradientTransform="matrix(1 0 0 -1 -21 401.5)">
	<stop  offset="0" style="stop-color:#BADFF6"/>
	<stop  offset="1" style="stop-color:#81B3FA"/>
</linearGradient>
<path class="st7" d="M3.5,3.5h1.1v2.2H3.5V3.5z"/>
<linearGradient id="SVGID_8_" gradientUnits="userSpaceOnUse" x1="37.5582" y1="399.1365" x2="37.5582" y2="394.7192" gradientTransform="matrix(1 0 0 -1 -21 401.5)">
	<stop  offset="0" style="stop-color:#76A0EF"/>
	<stop  offset="1" style="stop-color:#6B8FD4"/>
</linearGradient>
<path class="st8" d="M14.9,2.4h3.2v4.4h-3.2V2.4z"/>
<linearGradient id="SVGID_9_" gradientUnits="userSpaceOnUse" x1="37.5485" y1="398.0322" x2="37.5485" y2="395.8232" gradientTransform="matrix(1 0 0 -1 -21 401.5)">
	<stop  offset="0" style="stop-color:#BADFF6"/>
	<stop  offset="1" style="stop-color:#81B3FA"/>
</linearGradient>
<path class="st9" d="M16,3.5h1.1v2.2H16V3.5z"/>
</svg>
