<svg xmlns="http://www.w3.org/2000/svg" viewBox="0 0 82.05 73.8"><defs><style>.cls-1{fill:#025b76;}.cls-2{fill:#2c758a;}.cls-3{fill:#76c2d4;}.cls-4{fill:#fff;}</style></defs><title>Asset 7</title><g id="Layer_2" data-name="Layer 2"><g id="Layer_1-2" data-name="Layer 1"><path class="cls-1" d="M54,18.62,40.51,12.48,36.64,1.31,35.33,0H5.68A5.68,5.68,0,0,0,0,5.68V68.12A5.68,5.68,0,0,0,5.68,73.8H48.55a5.67,5.67,0,0,0,5.67-5.68V18.89Z"/><path class="cls-2" d="M35.33,0V13.22A5.67,5.67,0,0,0,41,18.89H54.22Z"/><rect class="cls-3" x="9.91" y="13.2" width="15.39" height="14.88" rx="0.77"/><rect class="cls-4" x="9.91" y="34.87" width="33.58" height="2.93" rx="0.5"/><rect class="cls-4" x="9.91" y="44.6" width="33.58" height="2.93" rx="0.5"/><rect class="cls-4" x="9.91" y="54.33" width="33.58" height="2.93" rx="0.5"/><path class="cls-3" d="M69.32,42,48.53,62.84l-2,6.55v0l-.18.57c-.23.88-.53,2.5.27,3.3s2.42.5,3.3.27l.57-.17,0,0,6.56-2L77.89,50.61Z"/><path class="cls-2" d="M82.05,45.35a2.76,2.76,0,0,0-.76-1.87l-4.84-4.82a2.67,2.67,0,0,0-1.88-.78,2.57,2.57,0,0,0-1.85.79l-3.41,3.39,8.56,8.57,3.42-3.43A2.65,2.65,0,0,0,82.05,45.35Z"/></g></g></svg>